# xmcd CD database file
#
# Track frame offsets:
#	150
#	24860
#	47210
#	74735
#	97297
#	120297
#	141437
#	154302
#	170477
#	188947
#	205472
#	225030
#	245535
#
# Disc length: 3555 seconds
#
# Revision: 2
# Processed by: cddbd v1.5.2PL0 Copyright (c) Steve Scherf et al.
# Submitted via: CDex 1.70beta3
#
DISCID=b90de10d
DTITLE=中森明菜 - AKINA [CD4 Super Club Mix/Best Live Tracks)
DYEAR=1993
DGENRE=JPop
TTITLE0=TATTOO
TTITLE1=BLONDE
TTITLE2=LA BOHEME
TTITLE3=TANGO NOIR
TTITLE4=DESIRE -情熱-
TTITLE5=AL-MAUJ（アルマージ）
TTITLE6=サザン・ウインド
TTITLE7=ミ・アモーレ[Meu amor e...]
TTITLE8=Fin
TTITLE9=I MISSED "THE SHOCK"
TTITLE10=難破船
TTITLE11=LIAR
TTITLE12=水に挿した花
EXTD=YEAR: 1993
EXTT0=
EXTT1=
EXTT2=
EXTT3=
EXTT4=
EXTT5=
EXTT6=
EXTT7=
EXTT8=
EXTT9=
EXTT10=
EXTT11=
EXTT12=
PLAYORDER=
